<svg id="Layer_1" data-name="Layer 1" xmlns="http://www.w3.org/2000/svg" viewBox="0 0 254.5 226"><defs><style>.cls-1,.cls-3{fill:#afafaf;}.cls-1,.cls-2{stroke:#afafaf;stroke-miterlimit:10;}.cls-2{fill:none;}.cls-4{fill:#4276c1;}.cls-5{fill:#fd8;}.cls-6{fill:#69f7a9;}.cls-10,.cls-7{font-size:12px;}.cls-7{fill:#edf4f0;}.cls-11,.cls-7,.cls-8{font-family:MyriadPro-Regular, Myriad Pro;}.cls-11,.cls-8{font-size:11px;}.cls-8{fill:#020202;}.cls-9{letter-spacing:0em;}.cls-12{letter-spacing:0.01em;}.cls-13{letter-spacing:0em;}.cls-14{letter-spacing:0em;}.cls-15{letter-spacing:-0.06em;}</style></defs><title>jira-task-process</title><circle class="cls-1" cx="25" cy="9.5" r="9"/><line class="cls-2" x1="25" y1="18.5" x2="25" y2="29.32"/><polygon class="cls-3" points="20.01 27.86 25 36.5 29.99 27.86 20.01 27.86"/><rect class="cls-4" y="43.5" width="50" height="19" rx="4.67" ry="4.67"/><rect class="cls-5" x="36.5" y="87" width="90" height="19" rx="4.67" ry="4.67"/><rect class="cls-5" x="96.5" y="127" width="90" height="19" rx="4.67" ry="4.67"/><rect class="cls-5" x="132.5" y="167" width="90" height="19" rx="4.67" ry="4.67"/><rect class="cls-6" x="197.5" y="207" width="57" height="19" rx="4.67" ry="4.67"/><path class="cls-2" d="M28,98s-12,1-12-6V78.56" transform="translate(-0.5 -2)"/><path class="cls-3" d="M16,79a7.33,7.33,0,0,1-4.54,1.59A13.72,13.72,0,0,0,16,75a14.44,14.44,0,0,0,4.54,5.55A7.67,7.67,0,0,1,16,79Z" transform="translate(-0.5 -2)"/><path class="cls-2" d="M86.5,139s-12,1-12-6V119.56" transform="translate(-0.5 -2)"/><path class="cls-3" d="M74.5,120A7.33,7.33,0,0,1,70,121.55,13.72,13.72,0,0,0,74.5,116,14.44,14.44,0,0,0,79,121.55,7.67,7.67,0,0,1,74.5,120Z" transform="translate(-0.5 -2)"/><path class="cls-2" d="M127.5,179s-12,1-12-6V159.56" transform="translate(-0.5 -2)"/><path class="cls-3" d="M115.5,160a7.33,7.33,0,0,1-4.54,1.59A13.72,13.72,0,0,0,115.5,156a14.44,14.44,0,0,0,4.54,5.55A7.67,7.67,0,0,1,115.5,160Z" transform="translate(-0.5 -2)"/><path class="cls-2" d="M57.5,54.5h17a4.33,4.33,0,0,1,2,4v6.44" transform="translate(-0.5 -2)"/><path class="cls-3" d="M76.5,64.54A7.33,7.33,0,0,1,81,63,13.72,13.72,0,0,0,76.5,68.5,14.44,14.44,0,0,0,72,63,7.67,7.67,0,0,1,76.5,64.54Z" transform="translate(-0.5 -2)"/><path class="cls-2" d="M136.5,98.5h17a4.33,4.33,0,0,1,2,4v6.44" transform="translate(-0.5 -2)"/><path class="cls-3" d="M155.5,108.54A7.33,7.33,0,0,1,160,107a13.72,13.72,0,0,0-4.54,5.55A14.44,14.44,0,0,0,151,107,7.67,7.67,0,0,1,155.5,108.54Z" transform="translate(-0.5 -2)"/><path class="cls-2" d="M195.5,139.5h17a4.33,4.33,0,0,1,2,4v6.44" transform="translate(-0.5 -2)"/><path class="cls-3" d="M214.5,149.54A7.33,7.33,0,0,1,219,148a13.72,13.72,0,0,0-4.54,5.55A14.44,14.44,0,0,0,210,148,7.67,7.67,0,0,1,214.5,149.54Z" transform="translate(-0.5 -2)"/><text class="cls-7" transform="translate(8.83 56.33)">OPEN</text><text class="cls-8" transform="translate(47.25 100.25)">IN P<tspan class="cls-9" x="18.05" y="0">R</tspan><tspan x="24" y="0">OGRESS</tspan><tspan class="cls-10" x="60.86" y="0" xml:space="preserve">    </tspan></text><text class="cls-11" transform="translate(104.5 140.5)">UNDER R<tspan class="cls-12" x="41.26" y="0">E</tspan><tspan x="46.77" y="0">VI</tspan><tspan class="cls-12" x="55.54" y="0">E</tspan><tspan class="cls-13" x="61.05" y="0">W</tspan></text><text class="cls-11" transform="translate(138.75 180.25)">FINAL APP<tspan class="cls-14" x="47.92" y="0">R</tspan><tspan x="53.87" y="0">O</tspan><tspan class="cls-15" x="61.45" y="0">V</tspan><tspan x="66.96" y="0">AL</tspan></text><text class="cls-11" transform="translate(213.75 221)">DONE</text></svg>